<svg width="122" height="43" viewBox="0 0 122 43" fill="none" xmlns="http://www.w3.org/2000/svg">
<path d="M14.8926 11.6533L19.4092 20.5889C20.0765 19.0915 20.7601 17.6022 21.46 16.1211C22.1761 14.6237 22.876 13.1344 23.5596 11.6533H35.2051L20.2393 41.9512C20.0928 42.2604 19.8405 42.4964 19.4824 42.6592C19.1243 42.8219 18.7337 42.9033 18.3105 42.9033C17.9199 42.9033 17.5374 42.8219 17.1631 42.6592C16.7887 42.4964 16.5202 42.2604 16.3574 41.9512L0.610352 11.6533H14.8926ZM45.2578 42.9033C43.0768 42.9033 40.9528 42.529 38.8857 41.7803C36.8187 41.0153 34.9551 39.9248 33.2949 38.5088C31.651 37.0765 30.3408 35.3675 29.3643 33.3818C28.404 31.3799 27.9238 29.1501 27.9238 26.6924C27.9238 24.2673 28.3796 22.0618 29.291 20.0762C30.2025 18.0905 31.4557 16.3896 33.0508 14.9736C34.6458 13.5413 36.485 12.4427 38.5684 11.6777C40.668 10.8965 42.8978 10.5059 45.2578 10.5059C48.5781 10.5059 51.5811 11.165 54.2666 12.4834C56.9521 13.7855 59.0762 15.6572 60.6387 18.0986C62.2174 20.5238 63.0068 23.4209 63.0068 26.79C63.0068 29.264 62.5267 31.4938 61.5664 33.4795C60.6061 35.4652 59.2959 37.1579 57.6357 38.5576C55.9756 39.9574 54.0794 41.0316 51.9473 41.7803C49.8314 42.529 47.6016 42.9033 45.2578 42.9033ZM43.7197 33.04C44.4359 33.04 45.2334 32.7064 46.1123 32.0391C46.9912 31.3555 47.8376 30.4928 48.6514 29.4512C49.4652 28.3932 50.1325 27.2865 50.6533 26.1309C51.1904 24.9753 51.459 23.9173 51.459 22.957C51.459 22.2246 51.2637 21.5573 50.873 20.9551C50.4987 20.3529 49.8477 20.0518 48.9199 20.0518C48.0736 20.0518 47.1784 20.3773 46.2344 21.0283C45.2904 21.6631 44.4033 22.5013 43.5732 23.543C42.7594 24.5684 42.0921 25.667 41.5713 26.8389C41.0667 27.9945 40.8145 29.1012 40.8145 30.1592C40.8145 30.8753 41.026 31.5345 41.4492 32.1367C41.8724 32.7389 42.6292 33.04 43.7197 33.04ZM73.4367 42.5C71.0701 42.5 68.9534 42 67.0867 41C65.2534 39.9667 63.8034 38.5167 62.7367 36.65C61.6701 34.75 61.1367 32.5 61.1367 29.9C61.1367 28.2333 61.3367 26.7333 61.7367 25.4C62.1367 24.0667 62.7201 22.8667 63.4867 21.8C64.2867 20.7 65.2534 19.7167 66.3867 18.85H59.8867V15.2H71.6867V18.65C70.0867 19.3833 68.6867 20.7333 67.4867 22.7C66.2867 24.6333 65.6867 27.0333 65.6867 29.9C65.6867 32.5333 66.3034 34.6833 67.5367 36.35C68.8034 38.0167 70.8034 38.85 73.5367 38.85C75.3367 38.85 76.8201 38.4833 77.9867 37.75C79.1534 36.9833 80.0034 35.9167 80.5367 34.55C81.1034 33.1833 81.3867 31.6167 81.3867 29.85C81.3867 28.15 81.1034 26.5333 80.5367 25C79.9701 23.4667 79.2201 22.1333 78.2867 21C77.3867 19.8667 76.4034 19.0833 75.3367 18.65V15.2H87.1367V18.85H80.6367C81.8034 19.7833 82.7701 20.8167 83.5367 21.95C84.3367 23.0833 84.9367 24.3167 85.3367 25.65C85.7367 26.95 85.9367 28.35 85.9367 29.85C85.9367 32.4833 85.4201 34.75 84.3867 36.65C83.3867 38.5167 81.9534 39.9667 80.0867 41C78.2201 42 76.0034 42.5 73.4367 42.5ZM99.0059 42H85.1631V0.911133H99.0059V42ZM97.0957 11.6533H99.8789V3.4502L114.479 1.96094V11.6533H121.388V19.3926H114.479V27.0586C114.479 29.2721 114.975 30.916 115.968 31.9902C116.961 33.0645 118.767 33.6016 121.388 33.6016V39.8027C119.988 40.7467 118.393 41.5036 116.603 42.0732C114.812 42.6592 112.989 42.9521 111.134 42.9521C109.083 42.9521 107.203 42.5208 105.494 41.6582C103.801 40.7956 102.442 39.5505 101.417 37.9229C100.392 36.2952 99.8789 34.3503 99.8789 32.0879V19.3926H97.0957V11.6533Z" fill="black"/>
</svg>
